<?xml version="1.0" encoding="utf-8"?>
<!-- Generator: Adobe Illustrator 22.1.0, SVG Export Plug-In . SVG Version: 6.00 Build 0)  -->
<svg version="1.1" id="Layer_1" xmlns="http://www.w3.org/2000/svg" xmlns:xlink="http://www.w3.org/1999/xlink" x="0px" y="0px"
	 viewBox="0 0 96 60" style="enable-background:new 0 0 96 60;" xml:space="preserve">
<style type="text/css">
	.st0{fill-rule:evenodd;clip-rule:evenodd;fill:#808080;}
</style>
<path class="st0" d="M34.9,57.5c0,0.1,0.1,0.1,0.1,0.2c0.2-0.4,0.3-0.8,0.5-1.2c0.1-0.2,0.1-0.3,0.2-0.5c0.1-0.2,0.1-0.3,0.2-0.4
	c0.1-0.1,0.1-0.3,0.2-0.3c0-0.1,0.1-0.2,0.1-0.2c0,0,0,0,0-0.1c0,0,0,0,0-0.1l0-0.1c0,0,0-0.1,0.1-0.1c0,0,0.1,0,0.1-0.1
	c0,0,0.1,0,0.2-0.1c0.1,0,0.2-0.1,0.3-0.1c0.1,0,0.2,0,0.4,0c0,0,0,0,0,0c0,0,0,0.1,0,0.1c0,0,0,0.1-0.1,0.1c0,0,0,0.1-0.1,0.2
	c0,0.1-0.1,0.1-0.1,0.2c0,0.1-0.1,0.2-0.1,0.3c0,0.1-0.1,0.2-0.1,0.3c0,0.1-0.1,0.2-0.2,0.3c0,0,0,0,0,0c0,0,0,0,0,0
	c0.1-0.1,0.1-0.1,0.2-0.2c0.1-0.1,0.1-0.1,0.2-0.2c0.1-0.1,0.1-0.1,0.2-0.2c0.2-0.2,0.4-0.4,0.7-0.5c0.3-0.2,0.6-0.3,0.9-0.3
	c0.2,0,0.3,0,0.4,0.1c0.1,0.1,0.2,0.1,0.2,0.2c0.1,0.1,0.1,0.3,0,0.5c0,0.1-0.1,0.3-0.2,0.5c-0.1,0.1-0.1,0.3-0.2,0.5
	c-0.1,0.2-0.2,0.3-0.2,0.5c-0.1,0.2-0.2,0.4-0.3,0.5c-0.1,0.2-0.1,0.3-0.2,0.5c-0.1,0.2-0.1,0.3-0.2,0.5c0,0.1-0.1,0.2-0.1,0.2
	c0,0.1,0,0.1,0,0.2c0,0.1,0.1,0.1,0.2,0.1c0,0,0.1,0,0.1,0c0,0,0.1,0,0.2-0.1c0.1,0,0.1-0.1,0.2-0.1c0.2-0.2,0.5-0.5,0.8-0.9
	c0,0,0,0,0,0c0,0,0,0,0,0l0.1-0.2c0.1-0.3,0.2-0.6,0.3-0.8c0.1-0.3,0.3-0.6,0.4-0.8c0-0.1,0-0.1,0.1-0.2c0-0.1,0.1-0.1,0.1-0.2
	c0-0.1,0.1-0.2,0.1-0.3v0l0,0l-0.6,0c-0.1,0-0.1,0-0.1-0.1c0,0,0,0,0-0.1c0-0.1,0.1-0.1,0.1-0.2c0,0,0.1-0.1,0.1-0.1
	c0,0,0.1,0,0.1,0l0.6,0c0,0,0,0,0,0v0c0.1-0.2,0.1-0.3,0.2-0.5c0.1-0.2,0.1-0.3,0.2-0.5c0.1-0.1,0.1-0.3,0.2-0.4
	c0.1-0.1,0.1-0.2,0.1-0.2c0,0,0,0,0-0.1c0,0,0,0,0-0.1l0-0.1c0,0,0-0.1,0.1-0.1c0.1,0,0.1-0.1,0.3-0.1c0.1,0,0.2-0.1,0.4-0.1
	c0.1,0,0.2,0,0.4,0c0,0,0,0,0.1,0c0,0,0,0,0,0.1c0,0,0,0.1-0.1,0.1c0,0,0,0.1-0.1,0.2c0,0.1-0.1,0.1-0.1,0.2
	c-0.1,0.1-0.1,0.3-0.2,0.4c-0.1,0.1-0.1,0.3-0.2,0.5c-0.1,0.2-0.2,0.4-0.2,0.6c0,0,0,0,0,0c0,0,0,0,0,0c0.2,0,0.4,0,0.5,0
	c0.2,0,0.3,0,0.4,0c0,0,0,0,0,0c0,0,0,0,0,0.1c0,0.1-0.1,0.1-0.2,0.1c-0.1,0-0.1,0-0.2,0.1c-0.1,0-0.1,0-0.2,0c-0.1,0-0.1,0-0.2,0
	c-0.1,0-0.2,0-0.3,0c0,0,0,0,0,0l0,0v0c-0.2,0.5-0.5,1.1-0.7,1.6c-0.2,0.5-0.5,1.1-0.6,1.5c-0.1,0.1-0.1,0.2-0.1,0.3
	c0,0.1,0,0.1,0,0.2c0,0.1,0.1,0.1,0.2,0.1c0.1,0,0.2,0,0.3-0.1c0.1-0.1,0.2-0.2,0.4-0.3c0.2-0.2,0.4-0.4,0.6-0.7c0,0,0,0,0,0
	c0,0,0,0,0,0c0-0.1,0-0.1,0.1-0.2c0-0.1,0.1-0.1,0.1-0.2c0-0.1,0.1-0.2,0.1-0.2c0-0.1,0.1-0.2,0.2-0.3c0.1-0.2,0.3-0.5,0.5-0.7
	c0.2-0.3,0.4-0.5,0.7-0.7c0.3-0.2,0.5-0.4,0.9-0.5c0.3-0.1,0.7-0.2,1-0.2c0.1,0,0.1,0,0.2,0c0,0,0.1,0,0.1,0.1c0,0,0.1,0.1,0.1,0.1
	l0,0c0,0,0,0,0,0c0,0,0-0.1,0.1-0.1c0.1-0.1,0.2-0.1,0.3-0.1c0.1,0,0.1,0,0.2,0c0.1,0,0.3,0,0.4,0c0,0,0,0,0,0c0,0,0,0,0,0.1
	c-0.2,0.5-0.4,0.9-0.6,1.4c-0.2,0.4-0.3,0.8-0.5,1.2c-0.2,0.4-0.3,0.8-0.5,1.1c0,0.1-0.1,0.2-0.1,0.3c0,0.1,0,0.1,0,0.2
	c0,0.1,0.1,0.1,0.2,0.1c0.1,0,0.2,0,0.3-0.1c0.1-0.1,0.2-0.2,0.4-0.4c0.2-0.2,0.4-0.4,0.6-0.8l0,0c0,0,0,0,0.1,0c0,0.1,0,0.1,0,0.2
	c0,0.1,0,0.1,0,0.2c0,0.1-0.1,0.2-0.1,0.3c-0.3,0.4-0.5,0.7-0.8,0.8c-0.2,0.2-0.5,0.3-0.7,0.4C45.2,60,45,60,44.8,60
	c-0.2,0-0.4-0.1-0.4-0.2c-0.1-0.1-0.1-0.3-0.1-0.5c0-0.2,0.1-0.4,0.2-0.6c0,0,0,0,0-0.1c0,0,0,0,0,0c0,0,0,0,0,0
	c-0.2,0.3-0.4,0.5-0.6,0.7c-0.2,0.2-0.4,0.3-0.5,0.4c-0.2,0.1-0.3,0.2-0.5,0.2c-0.1,0-0.2,0-0.3,0c-0.1,0-0.2-0.1-0.2-0.1
	c-0.1,0-0.1-0.1-0.1-0.2C42,59.5,42,59.3,42,59.1c0-0.1,0-0.3,0-0.4c0,0,0,0,0,0.1c-0.1,0.1-0.2,0.2-0.2,0.2
	c-0.1,0.1-0.2,0.2-0.3,0.2c-0.2,0.2-0.4,0.3-0.6,0.4c-0.2,0.1-0.4,0.1-0.5,0.2c-0.1,0-0.2,0-0.3,0c-0.1,0-0.1,0-0.1,0
	c-0.2,0-0.3-0.1-0.3-0.2c-0.1-0.1-0.1-0.2-0.1-0.4c0-0.1,0-0.2,0-0.3c0-0.1,0-0.2,0.1-0.2c-0.1,0.1-0.1,0.1-0.2,0.2
	c-0.2,0.1-0.3,0.3-0.4,0.3c-0.2,0.1-0.3,0.2-0.4,0.2c-0.2,0.1-0.3,0.1-0.4,0.1c-0.1,0-0.2,0-0.3,0c-0.1,0-0.2,0-0.3,0
	c-0.2-0.1-0.3-0.2-0.3-0.3c0-0.1,0-0.3,0-0.4c0-0.2,0.1-0.4,0.2-0.6c0-0.1,0.1-0.2,0.1-0.3c0.1-0.1,0.1-0.2,0.1-0.3
	c0.1-0.1,0.1-0.2,0.2-0.4c0-0.1,0.1-0.2,0.1-0.3c0-0.1,0.1-0.2,0.1-0.2c0-0.1,0.1-0.1,0.1-0.2c0.2-0.3,0.3-0.5,0.3-0.7
	c0.1-0.2,0.1-0.3,0.1-0.4c0-0.1,0-0.2-0.1-0.2c-0.1,0-0.2,0-0.3,0c-0.1,0.1-0.2,0.1-0.4,0.3c-0.1,0.1-0.3,0.2-0.4,0.4
	c-0.1,0.1-0.2,0.3-0.3,0.4c-0.1,0.1-0.2,0.2-0.3,0.3c-0.1,0.1-0.1,0.2-0.2,0.3c-0.1,0.1-0.1,0.2-0.2,0.3c-0.1,0.2-0.2,0.3-0.3,0.5
	c-0.1,0.2-0.1,0.3-0.2,0.4c-0.1,0.1-0.1,0.3-0.2,0.4c0,0.1-0.1,0.1-0.1,0.2c0,0.1-0.1,0.1-0.1,0.2c0,0.1-0.1,0.1-0.1,0.2
	c-0.1,0.1-0.2,0.2-0.3,0.2c-0.1,0-0.2,0.1-0.3,0.1c-0.1,0-0.3,0-0.4,0c-0.1,0-0.1,0-0.1-0.1c0,0,0,0,0-0.1c0.1-0.2,0.2-0.4,0.3-0.6
	c0.1-0.2,0.2-0.4,0.2-0.5l0-0.1c-0.1,0.2-0.3,0.3-0.5,0.4c-0.2,0.2-0.4,0.3-0.6,0.4c-0.2,0.1-0.4,0.2-0.6,0.2c-0.2,0-0.4,0-0.5,0
	c-0.1,0-0.2-0.1-0.3-0.2c-0.1-0.1-0.1-0.2-0.1-0.3c0-0.1,0-0.2,0-0.4c0-0.1,0.1-0.3,0.1-0.4c0-0.1,0.1-0.1,0.1-0.2c0,0,0,0,0,0
	c0,0,0-0.1,0-0.1c0,0,0,0,0,0c-0.3,0.4-0.5,0.6-0.8,0.8c-0.2,0.2-0.4,0.3-0.6,0.3c-0.2,0.1-0.4,0.1-0.6,0c-0.2,0-0.4-0.2-0.4-0.3
	c-0.1-0.2-0.1-0.4,0-0.6c0-0.1,0-0.2,0.1-0.3c0-0.1,0.1-0.2,0.1-0.3c0-0.1,0.1-0.2,0.1-0.3c0.2-0.4,0.3-0.8,0.5-1.2
	c0.1-0.2,0.1-0.3,0.2-0.5c0.1-0.2,0.1-0.3,0.2-0.4c0.1-0.1,0.1-0.2,0.2-0.3c0-0.1,0.1-0.2,0.1-0.2c0,0,0,0,0-0.1c0,0,0,0,0-0.1
	l0-0.1c0,0,0,0,0.1-0.1c0.1,0,0.2-0.1,0.3-0.1c0.1,0,0.3-0.1,0.4-0.1c0.1,0,0.2,0,0.4,0l0.1,0c0,0,0,0,0,0.1c0,0,0,0.1-0.1,0.1
	c0,0,0,0.1-0.1,0.2c0,0.1-0.1,0.1-0.1,0.2c0,0.1-0.1,0.2-0.1,0.3c0,0.1-0.1,0.2-0.1,0.3c0,0.1-0.1,0.2-0.1,0.3
	c-0.1,0.3-0.3,0.5-0.4,0.8c-0.1,0.2-0.2,0.4-0.3,0.7c-0.1,0.2-0.2,0.4-0.2,0.5c0,0.1,0,0.2,0,0.2c0,0.1,0,0.1,0,0.2
	c0,0,0.1,0.1,0.2,0.1c0,0,0.1,0,0.1,0c0.1,0,0.2-0.1,0.3-0.2c0.1-0.1,0.3-0.3,0.6-0.6c0.2-0.3,0.5-0.6,0.8-1.2l0.1-0.2
	c0.1-0.1,0.1-0.2,0.2-0.4c0.1-0.2,0.2-0.4,0.3-0.7c0-0.1,0.1-0.1,0.1-0.1c0,0,0,0,0,0c0,0,0,0,0.1-0.1c0.1,0,0.2-0.1,0.2-0.1
	c0.2-0.1,0.5-0.1,0.7,0c0,0,0,0,0.1,0c0,0,0,0,0,0.1c0,0.1,0,0.1-0.1,0.2c0,0.1,0,0.1-0.1,0.2c0,0.1-0.1,0.1-0.1,0.2
	c-0.2,0.5-0.4,1-0.6,1.4c-0.1,0.2-0.2,0.4-0.2,0.5c-0.1,0.2-0.2,0.3-0.2,0.5c-0.1,0.1-0.1,0.3-0.2,0.4c0,0.1-0.1,0.2-0.1,0.2
	c0,0.1-0.1,0.2-0.1,0.3c0,0.1,0,0.1,0,0.2c0,0.1,0.1,0.1,0.2,0.1c0.1,0,0.2,0,0.3-0.1c0.1-0.1,0.2-0.2,0.4-0.3
	C34.4,58,34.6,57.7,34.9,57.5C34.9,57.4,34.9,57.4,34.9,57.5C34.9,57.4,34.9,57.4,34.9,57.5 M26.9,55.3c-0.1,0.2-0.2,0.5-0.3,0.7
	c-0.1,0.2-0.2,0.4-0.3,0.7c-0.1,0.2-0.2,0.4-0.3,0.6c-0.1,0.2-0.1,0.3-0.2,0.4c0,0.1-0.1,0.2-0.2,0.2c-0.1,0-0.2,0.1-0.2,0.1
	c-0.2,0-0.3,0.1-0.4,0.1c-0.1,0-0.3,0-0.4,0c-0.1,0-0.2,0-0.3,0c-0.1,0-0.1,0-0.1-0.1c0,0,0-0.1,0-0.1c0.1-0.1,0.2-0.3,0.3-0.6
	c0.1-0.3,0.3-0.5,0.4-0.9c0.2-0.3,0.3-0.7,0.5-1c0.2-0.4,0.3-0.7,0.5-1.1c0.4-0.8,0.8-1.7,1.3-2.7c0,0,0.1-0.1,0.1-0.1
	c0,0,0.1-0.1,0.1-0.1l0.1-0.1c0.1-0.1,0.2-0.1,0.3-0.1c0.1,0,0.2,0,0.4,0c0.1,0,0.3,0,0.4,0.1c0,0,0,0,0.1,0c0,0,0,0.1,0,0.1
	c-0.2,0.3-0.3,0.7-0.5,1c-0.1,0.3-0.3,0.7-0.5,1.1c-0.2,0.4-0.4,0.8-0.6,1.2v0c0,0,0,0,0.1,0c0.3,0,0.6,0,0.9,0
	c0.3,0,0.5-0.1,0.7-0.2c0.2-0.1,0.4-0.2,0.6-0.3c0.3-0.3,0.6-0.6,0.7-0.9c0.1-0.3,0.2-0.5,0.3-0.8c0-0.3,0-0.5,0-0.7
	c-0.1-0.3-0.3-0.6-0.5-0.7c-0.3-0.2-0.5-0.3-0.8-0.4c-0.3-0.1-0.7-0.2-1.1-0.2c-0.5,0-0.9,0-1.2,0.1c-0.3,0.1-0.5,0.2-0.7,0.2
	c-0.2,0.1-0.3,0.2-0.4,0.4c0,0.1,0,0.2,0,0.4c0.1,0.1,0.1,0.3,0.2,0.4c0.1,0.1,0.2,0.3,0.3,0.4l0,0c0,0,0,0,0,0.1c0,0,0,0,0,0
	c0,0-0.1,0-0.2,0c-0.1,0-0.1,0-0.2-0.1c-0.1,0-0.3-0.1-0.4-0.2c-0.1-0.1-0.2-0.2-0.3-0.2c-0.1-0.1-0.2-0.2-0.3-0.3
	c-0.1-0.1-0.1-0.2-0.2-0.4c0-0.1,0-0.2,0-0.4c0,0,0-0.1,0-0.1c0,0,0-0.1,0.1-0.1c0,0,0.1-0.1,0.1-0.1c0.1-0.1,0.2-0.1,0.3-0.2
	c0.1-0.1,0.3-0.1,0.6-0.2c0.2-0.1,0.5-0.1,0.8-0.1c0.3,0,0.7,0,1.1,0c0.4,0,0.8,0.1,1.2,0.2c0.3,0.1,0.7,0.2,1.1,0.4
	c0.4,0.2,0.8,0.4,1.1,0.6c0.2,0.2,0.4,0.5,0.5,0.8c0,0.1,0.1,0.3,0.1,0.4c0,0.1,0,0.3,0,0.5c0,0.2-0.1,0.3-0.1,0.5
	c-0.1,0.2-0.2,0.4-0.3,0.5c-0.2,0.3-0.5,0.5-0.9,0.7c-0.3,0.2-0.8,0.4-1.3,0.5c-0.5,0.1-1.2,0.2-2,0.2C27,55.2,27,55.2,26.9,55.3
	C26.9,55.2,26.9,55.2,26.9,55.3z M22.4,51.3c-0.2,0-0.3-0.1-0.4-0.3c-0.1-0.2-0.1-0.3-0.1-0.5c0-0.2,0.1-0.3,0.3-0.4
	c0.1-0.1,0.3-0.1,0.5-0.1c0.2,0,0.3,0.1,0.4,0.3c0.1,0.2,0.1,0.3,0.1,0.5c0,0.2-0.1,0.3-0.3,0.4C22.7,51.3,22.5,51.3,22.4,51.3z
	 M18.9,51.7C18.9,51.7,18.9,51.7,18.9,51.7c0-0.1,0-0.2-0.1-0.3c0,0-0.1-0.1-0.1-0.1c0,0-0.1,0-0.1,0c0,0-0.1,0-0.1,0
	c-0.1,0-0.1,0-0.2,0c-0.1,0-0.1,0.1-0.2,0.1c-0.1,0-0.2,0.1-0.3,0.2c-0.2,0.2-0.4,0.4-0.5,0.6c-0.1,0.2-0.3,0.4-0.5,0.7
	c-0.2,0.3-0.3,0.6-0.4,0.9c0,0.1,0,0.2,0,0.3c0,0.1,0,0.1,0,0.2c0,0.1,0.1,0.1,0.1,0.1c0.1,0,0.1,0,0.2,0c0.1,0,0.2,0,0.2-0.1
	c0.1-0.1,0.2-0.1,0.4-0.3c0.2-0.1,0.3-0.3,0.5-0.5c0.1-0.2,0.3-0.4,0.5-0.7C18.5,52.6,18.7,52.2,18.9,51.7z M21.2,49.3
	c-0.2,0.5-0.5,1-0.7,1.5c-0.2,0.4-0.4,0.9-0.7,1.4c-0.2,0.5-0.5,1-0.7,1.5l-0.5,1.2c0,0.1,0,0.1,0,0.2c0,0.1,0,0.1,0,0.1
	c0,0,0.1,0.1,0.1,0.1c0.1,0,0.2,0.1,0.3,0c0.1,0,0.2-0.1,0.4-0.2c0.2-0.1,0.4-0.3,0.6-0.6l0,0c0,0,0,0,0,0.1c0,0,0,0.1,0,0.1
	l0.1-0.3c0.1-0.3,0.3-0.6,0.4-0.9c0.1-0.3,0.3-0.6,0.4-0.8c0.1-0.2,0.2-0.4,0.3-0.5c0,0,0,0,0-0.1c0,0,0,0,0,0l0,0l0.1-0.1
	c0,0,0.1,0,0.1,0c0,0,0.1,0,0.1,0c0.1,0,0.2,0,0.4,0c0.1,0,0.2,0,0.4,0.1c0,0,0,0,0,0c0,0,0,0.1,0,0.1c0,0,0,0.1-0.1,0.1
	c0,0,0,0.1-0.1,0.1c0,0.1-0.1,0.1-0.1,0.2c-0.1,0.2-0.2,0.5-0.4,0.8c-0.1,0.3-0.3,0.6-0.4,0.9c-0.2,0.4-0.3,0.7-0.5,1.2l-0.1,0.1
	c0,0.1,0,0.1,0,0.2c0,0.1,0,0.1,0,0.2c0,0.1,0.1,0.1,0.1,0.1c0,0,0.1,0,0.1,0c0,0,0.1,0,0.1,0c0.1,0,0.1,0,0.2,0
	c0.3-0.1,0.6-0.4,0.9-0.8l0,0c0,0,0,0,0.1,0c0,0.1,0,0.1,0,0.2c0,0.1,0,0.1,0,0.2c0,0.1-0.1,0.2-0.2,0.2c-0.3,0.3-0.5,0.4-0.7,0.6
	c-0.2,0.1-0.4,0.2-0.6,0.2c-0.2,0-0.4,0-0.5,0c-0.2,0-0.3-0.1-0.4-0.2c-0.1-0.1-0.2-0.2-0.2-0.3c0-0.1-0.1-0.2-0.1-0.4
	c0-0.1,0-0.1,0-0.2c0-0.1,0.1-0.2,0.1-0.2l0,0c-0.2,0.2-0.5,0.4-0.7,0.5c-0.2,0.1-0.5,0.2-0.6,0.2c-0.2,0-0.4,0-0.6-0.1
	c-0.2-0.1-0.3-0.2-0.3-0.3c-0.1-0.1-0.1-0.2-0.1-0.4c0-0.1,0-0.3,0.1-0.4c0,0,0-0.1,0-0.1c0,0,0-0.1,0-0.1c0,0,0-0.1,0.1-0.1
	c0,0,0,0,0,0c0,0,0,0,0,0c-0.3,0.3-0.5,0.5-0.8,0.5c-0.2,0.1-0.4,0.2-0.6,0.2c-0.2,0-0.3,0-0.5-0.1c-0.2-0.1-0.3-0.2-0.4-0.3
	c-0.1-0.1-0.1-0.3-0.2-0.4c0-0.2,0-0.3,0-0.5c0-0.3,0.1-0.6,0.2-0.9c0.1-0.3,0.2-0.5,0.4-0.8c0.2-0.3,0.4-0.6,0.8-0.8
	c0.2-0.2,0.5-0.3,0.7-0.4c0.2-0.1,0.4-0.1,0.7-0.1c0.3,0,0.5,0.1,0.8,0.3l0.1,0c0,0,0.1,0.1,0.1,0.1c0,0,0,0,0,0c0,0,0,0,0,0
	c0.2-0.4,0.4-0.7,0.5-1.1c0.1-0.1,0.1-0.3,0.2-0.4c0.1-0.1,0.1-0.3,0.2-0.4c0.1-0.1,0.1-0.2,0.2-0.3c0-0.1,0.1-0.2,0.1-0.2
	c0,0,0,0,0-0.1c0,0,0,0,0,0l0,0c0,0,0,0,0.1-0.1c0.1,0,0.1-0.1,0.2-0.1c0.1,0,0.2,0,0.3,0c0.1,0,0.2,0.1,0.4,0.1c0,0,0,0,0,0
	c0,0,0,0.1,0,0.1c0,0,0,0.1-0.1,0.1c0,0,0,0.1-0.1,0.2C21.3,49.2,21.3,49.3,21.2,49.3z M76.7,51.6c0.1-0.3,0.2-0.5,0.3-0.7
	c0.1-0.2,0.1-0.3,0.1-0.4c0-0.1,0-0.2,0-0.3c0-0.1-0.1-0.1-0.2-0.1c0,0-0.1,0-0.1,0.1c-0.2,0.1-0.4,0.4-0.6,0.7
	c-0.2,0.3-0.3,0.6-0.5,0.9c-0.2,0.3-0.3,0.7-0.5,1.1v0c0,0,0,0,0,0c0.2-0.1,0.4-0.2,0.5-0.4c0.2-0.2,0.3-0.3,0.4-0.5
	C76.5,52,76.6,51.8,76.7,51.6z M74,51.1c0.2-0.1,0.3-0.1,0.5-0.1c0.2,0,0.3-0.1,0.3-0.1c0,0,0,0,0,0c0,0,0,0,0,0.1
	c0,0.1-0.1,0.1-0.1,0.2c-0.1,0-0.1,0.1-0.2,0.1c-0.1,0-0.1,0.1-0.2,0.1c-0.1,0-0.1,0.1-0.2,0.1c-0.1,0-0.2,0.1-0.3,0.1c0,0,0,0,0,0
	l0,0v0c-0.2,0.6-0.5,1.2-0.7,1.9c-0.2,0.6-0.4,1.2-0.6,1.7c-0.1,0.1-0.1,0.3-0.1,0.3c0,0.1,0,0.1,0,0.2c0,0,0.1,0,0.2,0
	c0.1,0,0.2-0.1,0.3-0.2c0.1-0.1,0.2-0.3,0.4-0.5c0.2-0.2,0.3-0.5,0.6-0.9c0,0,0,0,0,0c0,0,0,0,0,0c0,0,0,0.1,0.1,0.1c0,0,0,0,0,0
	c0.1-0.3,0.2-0.6,0.3-1c0.1-0.2,0.2-0.5,0.3-0.7c0.1-0.3,0.3-0.5,0.5-0.8c0.2-0.3,0.4-0.5,0.6-0.8c0.2-0.3,0.5-0.5,0.8-0.7
	c0.2-0.1,0.4-0.2,0.6-0.3c0.2-0.1,0.3-0.1,0.5-0.1c0.2,0,0.3,0.1,0.4,0.2c0.1,0.2,0.1,0.3,0.1,0.5c0,0.2-0.1,0.4-0.2,0.6
	c-0.1,0.2-0.3,0.5-0.6,0.8c-0.2,0.2-0.4,0.4-0.6,0.6c-0.2,0.2-0.4,0.3-0.7,0.5c-0.2,0.2-0.5,0.3-0.8,0.4l0,0c0,0,0,0,0,0
	c-0.1,0.3-0.2,0.6-0.1,0.9c0,0.1,0,0.2,0,0.3c0,0.1,0.1,0.2,0.1,0.2c0.1,0.1,0.1,0.1,0.2,0.1c0.1,0,0.2,0,0.4-0.1
	c0.2-0.1,0.4-0.2,0.5-0.4c0.2-0.2,0.3-0.4,0.5-0.6c0.2-0.3,0.4-0.6,0.6-1c0,0,0,0,0,0c0,0,0,0,0.1,0c0,0.1,0,0.1,0,0.2
	c0,0.1,0,0.1,0,0.2c0,0.1-0.1,0.2-0.1,0.3c-0.3,0.5-0.6,0.9-0.9,1.1c-0.3,0.3-0.6,0.5-0.8,0.6c-0.3,0.2-0.6,0.3-0.8,0.3
	c-0.2,0-0.4,0-0.5,0c-0.1-0.1-0.2-0.1-0.3-0.3C74,55.3,74,55.2,74,55c0-0.2,0-0.3,0-0.5c0,0,0-0.1,0-0.1c0,0,0,0.1,0,0.1
	c0,0.1-0.1,0.2-0.2,0.3c-0.1,0.1-0.2,0.2-0.2,0.3c-0.1,0.1-0.2,0.2-0.3,0.4c-0.2,0.3-0.4,0.5-0.6,0.6c-0.2,0.2-0.3,0.3-0.5,0.3
	c-0.1,0.1-0.2,0.1-0.3,0.2c-0.1,0-0.1,0-0.1,0c-0.2,0-0.3,0-0.3-0.1c-0.1-0.1-0.1-0.2-0.1-0.3c0-0.1,0-0.2,0-0.3
	c0-0.1,0-0.2,0.1-0.3c0-0.1,0.1-0.2,0.1-0.3c0.1-0.3,0.2-0.6,0.3-0.9c0.1-0.3,0.2-0.6,0.3-0.9c0.1-0.3,0.2-0.7,0.4-1
	c0-0.1,0-0.1,0.1-0.2c0-0.1,0.1-0.2,0.1-0.2c0-0.1,0.1-0.2,0.1-0.3v0l0,0L72.1,52C72,52,72,52,72,52c0,0,0,0,0-0.1
	c0-0.1,0.1-0.1,0.1-0.2c0,0,0.1-0.1,0.1-0.1c0,0,0.1-0.1,0.1-0.1l0.6-0.2c0,0,0,0,0,0v0c0.1-0.2,0.1-0.4,0.2-0.6
	c0.1-0.2,0.1-0.4,0.2-0.5c0.1-0.2,0.1-0.3,0.2-0.4c0.1-0.1,0.1-0.2,0.1-0.3c0,0,0-0.1,0-0.1c0,0,0,0,0-0.1l0-0.1c0,0,0-0.1,0.1-0.1
	c0.1-0.1,0.1-0.1,0.2-0.2c0.1-0.1,0.2-0.1,0.3-0.2c0.1-0.1,0.2-0.1,0.4-0.1c0,0,0,0,0.1,0c0,0,0,0,0,0.1c0,0,0,0.1-0.1,0.2
	c0,0,0,0.1-0.1,0.2c0,0.1-0.1,0.2-0.1,0.3c-0.1,0.1-0.1,0.3-0.2,0.5c-0.1,0.2-0.1,0.3-0.2,0.5C74.2,50.6,74.1,50.8,74,51.1
	C74,51,74,51,74,51.1C74,51.1,74,51.1,74,51.1z M65.5,53.9C65.5,53.9,65.5,53.9,65.5,53.9L65.5,53.9c-0.1,0.2-0.2,0.3-0.2,0.5
	c-0.1,0.1-0.1,0.3-0.2,0.4c-0.2,0.5-0.4,0.9-0.5,1.3c-0.1,0.2-0.1,0.3-0.2,0.5c-0.1,0.2-0.2,0.3-0.2,0.5c-0.1,0.2-0.1,0.3-0.2,0.4
	c-0.1,0.1-0.1,0.2-0.2,0.3c0,0,0,0,0,0.1c0,0,0,0,0.1,0c0.3,0,0.6-0.1,0.9-0.1c0.3-0.1,0.5-0.2,0.8-0.3c0.3-0.1,0.5-0.3,0.8-0.5
	c0.2-0.1,0.3-0.3,0.5-0.5c0.2-0.2,0.3-0.3,0.5-0.5c0.2-0.2,0.3-0.4,0.5-0.7c0,0,0,0,0.1-0.1c0,0,0.1-0.1,0.1-0.1c0,0,0,0,0.1,0
	c0,0,0,0,0,0.1c0,0,0,0.1,0,0.1c0,0.2-0.1,0.3-0.1,0.5c0.1-0.1,0.1-0.2,0.2-0.2c0.1-0.1,0.1-0.1,0.1-0.1c0,0,0.1-0.1,0.1-0.1
	c0,0,0.1-0.1,0.1-0.1c0,0,0.1,0,0.1,0c0,0,0,0,0,0.1c-0.1,0.1-0.1,0.2-0.1,0.3c0,0.1-0.1,0.2-0.1,0.3c0,0.1,0,0.2-0.1,0.3
	c0,0.2,0,0.4,0,0.5c0,0.1,0.1,0.2,0.1,0.3c0.1,0.1,0.1,0.1,0.2,0.1c0.1,0,0.2,0,0.3,0c0.1,0,0.2-0.1,0.3-0.1
	c0.1-0.1,0.2-0.1,0.3-0.2c0.2-0.2,0.3-0.4,0.4-0.5c0.1-0.2,0.1-0.3,0.1-0.4c0-0.2,0-0.3-0.1-0.4c-0.1-0.1-0.1-0.2-0.2-0.3
	c-0.1-0.1-0.2-0.2-0.3-0.3c-0.1-0.1-0.2-0.2-0.3-0.3c-0.1-0.1-0.2-0.2-0.3-0.3c0-0.1-0.1-0.2-0.1-0.3c0-0.1,0-0.2,0-0.3
	c0.1-0.2,0.1-0.4,0.3-0.6c0.1-0.2,0.3-0.4,0.5-0.5c0.2-0.2,0.5-0.4,0.9-0.5c0.2-0.1,0.3-0.1,0.5-0.2c0.1,0,0.3-0.1,0.4-0.1
	c0.2,0,0.3,0,0.4,0l0,0c0,0,0,0.1,0,0.1c0,0.1-0.1,0.2-0.1,0.3c0,0.1-0.1,0.2-0.2,0.4c-0.1,0.1-0.1,0.3-0.2,0.5c0,0,0,0,0,0
	c0,0-0.1,0.1-0.1,0.1c0,0,0,0,0,0c0,0,0-0.1,0-0.1c0-0.1,0-0.3-0.1-0.4c0-0.1-0.1-0.2-0.1-0.3c-0.1-0.1-0.1-0.1-0.2-0.1
	c-0.1,0-0.2,0-0.3,0.1c-0.1,0-0.2,0.1-0.3,0.1c-0.1,0.1-0.2,0.1-0.3,0.3c-0.1,0.1-0.1,0.2-0.1,0.3c0,0.1,0,0.2,0,0.3
	c0,0.1,0,0.2,0.1,0.3c0.1,0.1,0.2,0.2,0.2,0.2c0.1,0.1,0.1,0.1,0.2,0.2c0.1,0.1,0.1,0.1,0.2,0.2c0.1,0.1,0.3,0.3,0.4,0.4
	c0.1,0.1,0.1,0.3,0.2,0.5c0,0.2,0,0.4-0.1,0.7c-0.2,0.4-0.4,0.7-0.6,0.9c-0.2,0.3-0.5,0.5-0.7,0.6c-0.3,0.2-0.5,0.3-0.8,0.5
	c-0.3,0.1-0.6,0.2-0.8,0.2c-0.2,0-0.3,0-0.4-0.1c-0.1-0.1-0.2-0.1-0.3-0.3c0-0.1,0-0.2,0-0.3c0,0.1-0.1,0.1-0.1,0.2
	c0,0.1-0.1,0.2-0.2,0.2c-0.1,0.1-0.1,0.1-0.2,0.1c-0.1,0-0.1,0.1-0.2,0.1c-0.1,0-0.2,0.1-0.4,0.1C66.2,58,66,58,65.7,58
	c-0.2,0-0.5,0.1-0.8,0.1c-0.3,0-0.5,0.1-0.8,0.1c-0.6,0.1-1.3,0.2-2.1,0.4c-0.1,0-0.1,0-0.1,0c0,0,0,0,0-0.1c0,0,0-0.1,0.1-0.1
	c0.1-0.1,0.2-0.2,0.4-0.4c0.1-0.2,0.2-0.3,0.3-0.5c0.1-0.2,0.2-0.4,0.3-0.6c0.2-0.4,0.4-0.9,0.6-1.4c0.2-0.5,0.4-1,0.6-1.5v0
	c0,0,0,0,0,0c-0.1,0-0.1,0-0.1,0c0,0-0.1,0-0.1,0l-0.1,0c-0.1,0-0.1,0-0.1,0c0,0,0,0,0-0.1c0,0,0-0.1,0-0.1c0-0.1,0-0.1,0.1-0.2
	c0,0,0.1-0.1,0.1-0.1c0,0,0.1-0.1,0.2-0.1c0,0,0.1,0,0.1,0c0.1,0,0.2-0.1,0.3-0.1l0,0c0,0,0,0,0,0c0.1-0.1,0.1-0.3,0.1-0.4
	c0-0.1,0.1-0.2,0.1-0.3c0-0.1,0.1-0.2,0.1-0.3c0.1-0.3,0.3-0.6,0.5-0.8c0.2-0.2,0.4-0.4,0.5-0.6c0.2-0.2,0.4-0.3,0.6-0.5
	c0,0,0.1,0,0.1-0.1c0,0,0,0,0,0c0,0,0,0,0,0c-0.2,0-0.3,0-0.5,0c-0.2,0-0.3,0-0.4,0c-0.1,0-0.2,0-0.3,0c-0.3,0.1-0.6,0.2-0.8,0.3
	c-0.2,0.1-0.3,0.2-0.5,0.3c-0.1,0.1-0.2,0.2-0.3,0.4c0,0.1,0,0.2,0,0.3c0,0.1,0.1,0.2,0.2,0.2c0.1,0.1,0.2,0.2,0.3,0.2
	c0,0,0,0,0.1,0c0,0,0.1,0.1,0.1,0.1c0,0,0,0,0,0.1c0,0,0,0,0,0c0,0-0.1,0-0.1,0c-0.3,0-0.5,0-0.7-0.1c-0.2,0-0.3-0.1-0.5-0.3
	c-0.1-0.1-0.2-0.3-0.1-0.5c0,0,0-0.1,0.1-0.1c0-0.1,0.1-0.2,0.2-0.3c0.2-0.2,0.4-0.3,0.8-0.5c0.3-0.2,0.8-0.4,1.4-0.6
	c0.2-0.1,0.5-0.1,0.8-0.2c0.2-0.1,0.5-0.1,0.8-0.1c0.3,0,0.6-0.1,0.8-0.1c0.3,0,0.6-0.1,0.8-0.1c0.2,0,0.5-0.1,0.7-0.2
	c0.2-0.1,0.4-0.1,0.6-0.2l0,0c0,0,0,0,0,0c0,0,0,0,0,0c0,0,0,0,0,0c0,0,0,0.1,0,0.1c-0.1,0.2-0.2,0.4-0.3,0.5
	c-0.1,0.1-0.2,0.2-0.3,0.3c-0.1,0.1-0.2,0.1-0.3,0.2c-0.1,0-0.2,0.1-0.4,0.1c-0.1,0-0.3,0-0.4,0c-0.2,0-0.3,0-0.5,0
	c-0.2,0-0.4,0-0.6,0c0,0-0.1,0-0.1,0c0,0-0.1,0-0.1,0.1c0,0-0.1,0.1-0.1,0.1c-0.1,0.1-0.2,0.2-0.3,0.4c-0.1,0.1-0.2,0.4-0.3,0.6
	c-0.1,0.3-0.3,0.6-0.4,1c0,0,0,0.1-0.1,0.1c0,0.1-0.1,0.3-0.1,0.4c0,0,0,0,0,0l0,0c0.3,0,0.5-0.1,0.8-0.1c0.3,0,0.5-0.1,0.7-0.1
	l0.1,0c0.1,0,0.1,0,0.2,0c0.1,0,0.1,0,0.1,0c0,0,0,0,0,0c0,0,0,0,0,0.1c0,0.1-0.1,0.1-0.1,0.2c0,0.1-0.1,0.1-0.2,0.2
	c-0.1,0-0.1,0.1-0.2,0.1c-0.1,0.1-0.2,0.1-0.4,0.2c-0.2,0-0.3,0.1-0.5,0.1c-0.2,0-0.4,0.1-0.7,0.1L65.5,53.9z M56.7,56
	c0.1-0.2,0.3-0.4,0.3-0.6c0.1-0.2,0.1-0.3,0.1-0.4c0-0.1,0-0.2,0-0.3c0-0.1-0.1-0.1-0.2-0.1c0,0-0.1,0-0.1,0
	c-0.2,0.1-0.4,0.3-0.6,0.5c-0.2,0.3-0.4,0.5-0.5,0.8c-0.2,0.3-0.3,0.6-0.5,1v0c0,0,0,0,0,0c0.2,0,0.4-0.1,0.6-0.2
	c0.2-0.1,0.3-0.2,0.4-0.4C56.5,56.3,56.6,56.1,56.7,56z M52.8,55.4C52.8,55.3,52.9,55.3,52.8,55.4c0-0.2,0-0.2-0.1-0.2
	c0,0-0.1,0-0.1,0c0,0-0.1,0-0.1,0c0,0-0.1,0-0.1,0c-0.1,0-0.1,0-0.2,0.1c-0.1,0-0.1,0.1-0.2,0.2c-0.1,0.1-0.2,0.2-0.3,0.3
	c-0.2,0.2-0.4,0.5-0.6,0.8c-0.2,0.2-0.3,0.5-0.5,0.9c-0.2,0.3-0.3,0.7-0.4,1.1c0,0.1,0,0.2,0,0.3c0,0.1,0,0.1,0,0.2
	c0,0.1,0.1,0.1,0.1,0.1c0.1,0,0.1,0,0.2-0.1c0.1,0,0.2-0.1,0.3-0.2c0.1-0.1,0.2-0.2,0.4-0.4c0.2-0.2,0.3-0.4,0.5-0.7
	c0.2-0.2,0.3-0.6,0.5-0.9C52.4,56.4,52.6,55.9,52.8,55.4z M55.3,52c-0.3,0.6-0.5,1.2-0.8,1.8c-0.2,0.5-0.5,1.1-0.7,1.7
	c-0.3,0.6-0.5,1.2-0.7,1.7l-0.6,1.4c0,0.1,0,0.1,0,0.2c0,0.1,0,0.1,0,0.1c0,0,0.1,0.1,0.1,0.1c0.1,0,0.2,0,0.3-0.1
	c0.1-0.1,0.3-0.2,0.4-0.4c0.1-0.2,0.3-0.4,0.5-0.7c0.1-0.3,0.2-0.6,0.3-0.9c0.1-0.2,0.2-0.4,0.3-0.7c0.1-0.2,0.3-0.5,0.5-0.7
	c0.2-0.2,0.4-0.4,0.6-0.6c0.2-0.2,0.5-0.4,0.8-0.5c0.2-0.1,0.4-0.2,0.6-0.2c0.2,0,0.4,0,0.5,0c0.2,0,0.3,0.1,0.4,0.3
	c0.1,0.2,0.1,0.3,0.1,0.5c0,0.2-0.1,0.4-0.2,0.6c-0.1,0.2-0.3,0.4-0.6,0.7c-0.2,0.2-0.4,0.3-0.6,0.5c-0.2,0.1-0.4,0.2-0.7,0.4
	c-0.3,0.1-0.5,0.2-0.8,0.3l0,0c0,0,0,0,0,0C55,57.8,55,58.1,55,58.3c0,0.1,0,0.2,0,0.3c0,0.1,0.1,0.2,0.1,0.2
	c0.1,0.1,0.1,0.1,0.2,0.1c0.1,0,0.2,0,0.4,0c0.2,0,0.4-0.1,0.6-0.2c0.2-0.1,0.4-0.3,0.6-0.5c0.2-0.2,0.4-0.5,0.6-0.9c0,0,0,0,0,0
	c0,0,0,0,0.1,0c0,0.1,0,0.1,0,0.2c0,0,0,0.1,0,0.2c0-0.1,0.1-0.1,0.1-0.2c0.1-0.2,0.2-0.4,0.3-0.7c0.1-0.3,0.3-0.7,0.4-1
	c0.1-0.3,0.2-0.6,0.4-0.9c0.1-0.3,0.2-0.6,0.3-0.9c0.2-0.5,0.4-0.9,0.5-1.3c0.1-0.2,0.1-0.3,0.2-0.5c0.1-0.2,0.1-0.3,0.2-0.5
	c0.1-0.1,0.1-0.3,0.2-0.4c0-0.1,0.1-0.2,0.1-0.2c0,0,0-0.1,0-0.1c0,0,0,0,0-0.1l0-0.1c0,0,0-0.1,0.1-0.1c0.1,0,0.1-0.1,0.3-0.2
	c0.1-0.1,0.2-0.1,0.4-0.1c0.1,0,0.2-0.1,0.4-0.1c0,0,0,0,0,0c0,0,0,0.1,0,0.1c0,0,0,0.1-0.1,0.2c0,0,0,0.1-0.1,0.2
	c0,0.1-0.1,0.1-0.1,0.2c-0.2,0.5-0.4,1-0.6,1.5c-0.2,0.5-0.4,0.9-0.6,1.5c-0.2,0.5-0.4,1-0.6,1.6c-0.1,0.3-0.3,0.6-0.4,0.9
	c-0.1,0.2-0.2,0.5-0.3,0.8c-0.1,0.3-0.2,0.5-0.3,0.6c0,0.1-0.1,0.2-0.1,0.3c0,0.1,0,0.1,0.1,0.1c0,0,0.1,0,0.3,0
	c0.1,0,0.2-0.1,0.3-0.2c0.1-0.1,0.2-0.2,0.4-0.4c0.2-0.2,0.3-0.4,0.5-0.8c0,0,0,0,0,0c0,0,0,0,0,0c0,0.1,0,0.2,0,0.2
	c0,0.1,0,0.1,0,0.2c0,0,0,0.1-0.1,0.1c-0.2,0.4-0.4,0.7-0.7,0.9c-0.2,0.2-0.4,0.4-0.6,0.5c-0.2,0.2-0.4,0.3-0.6,0.3
	c-0.3,0.1-0.4,0.1-0.5,0c-0.1-0.1-0.2-0.2-0.2-0.3c0-0.1,0-0.3,0-0.5c0-0.1,0.1-0.3,0.1-0.4l0-0.1c0,0,0,0.1-0.1,0.1
	c-0.3,0.4-0.6,0.7-0.9,0.9c-0.3,0.2-0.6,0.3-0.9,0.4c-0.3,0.1-0.6,0.2-0.9,0.1c-0.2,0-0.4-0.1-0.5-0.2c-0.1-0.1-0.2-0.2-0.3-0.3
	c-0.1-0.1-0.1-0.3-0.1-0.4c0-0.1,0-0.1,0-0.2c-0.3,0.3-0.5,0.6-0.7,0.8c-0.3,0.2-0.5,0.3-0.7,0.4c-0.2,0.1-0.4,0.1-0.6,0.1
	c-0.2,0-0.3-0.1-0.4-0.2c-0.1-0.1-0.1-0.2-0.1-0.3c0-0.1,0-0.3,0.1-0.5c0,0,0-0.1,0-0.1c0,0,0-0.1,0-0.1c0,0,0-0.1,0.1-0.1
	c0,0,0,0,0,0c0,0,0,0,0,0c-0.3,0.4-0.6,0.7-0.8,0.8c-0.2,0.2-0.4,0.3-0.6,0.4c-0.2,0.1-0.4,0.1-0.5,0.1c-0.2,0-0.3-0.1-0.4-0.2
	c-0.1-0.1-0.1-0.2-0.2-0.3c0-0.1,0-0.3,0-0.5c0-0.3,0.1-0.7,0.3-1c0.1-0.3,0.3-0.6,0.5-1c0.2-0.4,0.5-0.7,0.8-1.1
	c0.2-0.2,0.5-0.5,0.7-0.6c0.2-0.2,0.5-0.3,0.7-0.4c0.3-0.1,0.5-0.1,0.8-0.1l0.1,0c0,0,0.1,0,0.1,0c0,0,0,0,0,0c0,0,0,0,0,0
	c0.2-0.5,0.4-0.9,0.5-1.3c0.1-0.2,0.1-0.3,0.2-0.5c0.1-0.2,0.1-0.3,0.2-0.5c0.1-0.1,0.1-0.3,0.2-0.4c0-0.1,0.1-0.2,0.1-0.2
	c0,0,0-0.1,0-0.1c0,0,0,0,0-0.1l0-0.1c0,0,0-0.1,0.1-0.1c0.1-0.1,0.2-0.1,0.3-0.2c0.1-0.1,0.2-0.1,0.4-0.1c0.1,0,0.2,0,0.4,0
	c0,0,0,0,0,0c0,0,0,0.1,0,0.1c0,0,0,0.1-0.1,0.2c0,0,0,0.1-0.1,0.2C55.4,51.9,55.3,51.9,55.3,52z M45.1,57.1
	c0.1-0.2,0.2-0.4,0.3-0.6c0.1-0.2,0.2-0.4,0.2-0.5c0.1-0.2,0.1-0.3,0.2-0.5c0,0,0,0,0-0.1v0c0-0.1-0.1-0.1-0.1-0.1
	c-0.1,0-0.1,0-0.2,0c-0.1,0-0.1,0-0.2,0.1c-0.2,0.1-0.4,0.3-0.6,0.5c-0.2,0.2-0.4,0.4-0.5,0.7c-0.2,0.2-0.3,0.5-0.4,0.7
	c-0.1,0.2-0.2,0.4-0.3,0.6c0,0.1-0.1,0.1-0.1,0.2c0,0.1,0,0.1-0.1,0.2c0,0,0,0.1,0,0.1c0,0.1,0,0.3-0.1,0.3c0,0.1,0,0.2,0,0.2
	c0,0.1,0.1,0.1,0.1,0.1c0,0,0.1,0,0.2,0c0.1,0,0.1-0.1,0.2-0.1c0.1-0.1,0.2-0.2,0.3-0.3c0.1-0.1,0.2-0.3,0.4-0.4
	c0.1-0.1,0.2-0.3,0.4-0.5C44.8,57.5,45,57.3,45.1,57.1z M53.6,6.6c0.2-0.3,0.3-0.5,0.4-0.7c0.1-0.2,0.1-0.4,0.2-0.5
	c0-0.1,0-0.3,0-0.3C54.1,5,54,4.9,54,4.9c0,0-0.1,0-0.1,0C53.5,5,53.3,5.2,53,5.5c-0.3,0.3-0.5,0.6-0.7,1c-0.2,0.4-0.4,0.8-0.7,1.3
	v0c0,0,0,0,0.1,0c0.3,0,0.5-0.1,0.7-0.2c0.2-0.1,0.4-0.3,0.6-0.4C53.2,7,53.4,6.8,53.6,6.6z M43.9,7.2c0.1-0.3,0.2-0.5,0.3-0.8
	c0.1-0.3,0.2-0.5,0.3-0.7c0.1-0.2,0.2-0.5,0.3-0.7c0,0,0,0,0-0.1v0c0-0.1-0.1-0.1-0.2-0.1c-0.1,0-0.2,0-0.2,0c-0.1,0-0.2,0-0.3,0.1
	c-0.3,0.2-0.6,0.4-0.9,0.7c-0.3,0.3-0.5,0.6-0.7,0.9c-0.2,0.3-0.4,0.6-0.5,1c-0.2,0.3-0.3,0.6-0.4,0.8c0,0.1-0.1,0.2-0.1,0.3
	c0,0.1,0,0.1-0.1,0.2c0,0.1,0,0.1-0.1,0.2c0,0.2-0.1,0.3-0.1,0.5c0,0.1,0,0.2,0,0.3c0,0.1,0.1,0.2,0.2,0.2c0.1,0,0.1,0,0.2,0
	c0.1,0,0.2-0.1,0.3-0.2c0.1-0.1,0.3-0.2,0.4-0.4C42.6,9.2,42.8,9,43,8.8c0.1-0.2,0.3-0.4,0.5-0.7C43.6,7.8,43.8,7.5,43.9,7.2z
	 M33,12c-0.3,0-0.5-0.1-0.7-0.2c-0.2-0.1-0.3-0.2-0.4-0.4c-0.1-0.2-0.1-0.4-0.2-0.6c0-0.2,0-0.4,0-0.6c0-0.5,0.2-1.1,0.5-1.7
	c0.1-0.3,0.3-0.6,0.4-0.9c0.2-0.3,0.4-0.7,0.6-1c0.3-0.3,0.5-0.6,0.9-0.9c0.3-0.3,0.7-0.5,1.1-0.7c0.3-0.1,0.6-0.2,0.9-0.3
	c0.2-0.1,0.5-0.1,0.7,0c0.2,0,0.4,0.2,0.6,0.4c0.1,0.2,0.1,0.5,0.1,0.7c0,0.2-0.1,0.5-0.3,0.8c-0.1,0.3-0.4,0.6-0.8,1
	c-0.3,0.2-0.5,0.5-0.8,0.7c-0.3,0.2-0.6,0.4-0.9,0.5C34.3,8.8,33.9,9,33.5,9l0,0c0,0,0,0-0.1,0c-0.1,0.4-0.2,0.8-0.2,1.1
	c0,0.1,0,0.3,0,0.4c0,0.1,0.1,0.2,0.2,0.3c0.1,0.1,0.2,0.1,0.3,0.2c0.1,0,0.3,0,0.5,0c0.2-0.1,0.5-0.2,0.7-0.3
	c0.2-0.2,0.5-0.4,0.8-0.7c0.3-0.3,0.6-0.7,0.9-1.2c0,0,0,0,0,0c0,0,0.1,0,0.1,0.1c0,0.1,0,0.2,0,0.3c0,0.1,0,0.2-0.1,0.3
	c0-0.1,0.1-0.2,0.1-0.3c0.1-0.3,0.2-0.6,0.4-0.9c0.2-0.4,0.4-0.9,0.5-1.3c0.2-0.4,0.3-0.8,0.5-1.2c0.2-0.4,0.3-0.8,0.5-1.1
	c0.3-0.6,0.5-1.2,0.7-1.7c0.1-0.2,0.2-0.4,0.3-0.7c0.1-0.2,0.2-0.4,0.3-0.6c0.1-0.2,0.2-0.4,0.2-0.5c0.1-0.1,0.1-0.3,0.2-0.3
	c0,0,0-0.1,0.1-0.1c0,0,0-0.1,0-0.1l0-0.1c0,0,0.1-0.1,0.1-0.1c0.1-0.1,0.2-0.1,0.3-0.2c0.2-0.1,0.3-0.1,0.5-0.2
	C41.6,0,41.7,0,41.9,0c0,0,0,0,0.1,0c0,0,0,0.1,0,0.1c0,0.1-0.1,0.1-0.1,0.2c0,0.1-0.1,0.1-0.1,0.2c0,0.1-0.1,0.2-0.1,0.3
	c-0.3,0.7-0.5,1.3-0.8,2c-0.2,0.6-0.5,1.2-0.8,1.9c-0.3,0.7-0.6,1.4-0.9,2C39,7.3,38.9,7.6,38.7,8c-0.1,0.3-0.3,0.7-0.4,1
	c-0.1,0.3-0.2,0.6-0.3,0.9c-0.1,0.1-0.1,0.3-0.1,0.3c0,0.1,0,0.1,0.1,0.2c0.1,0,0.2,0,0.3,0c0.1,0,0.3-0.1,0.4-0.3
	c0.1-0.1,0.3-0.3,0.5-0.5c0.2-0.2,0.4-0.5,0.7-0.9C40,8.6,40,8.5,40,8.4c0-0.1,0.1-0.2,0.1-0.3c0-0.1,0.1-0.2,0.1-0.3
	c0.1-0.1,0.1-0.3,0.2-0.4c0.2-0.3,0.4-0.6,0.6-1c0.3-0.4,0.6-0.7,0.9-1c0.3-0.3,0.7-0.6,1.1-0.8c0.4-0.2,0.9-0.3,1.4-0.3
	c0.1,0,0.2,0,0.3,0c0.1,0,0.1,0,0.2,0.1c0.1,0,0.1,0.1,0.1,0.1l0,0c0,0,0,0,0.1,0c0,0,0.1-0.1,0.1-0.1c0.1-0.1,0.2-0.2,0.4-0.2
	c0.1,0,0.2,0,0.3,0c0.2,0,0.4,0,0.6,0c0,0,0,0,0.1,0c0,0,0,0.1,0,0.1c-0.3,0.6-0.5,1.3-0.8,1.9c-0.2,0.5-0.5,1.1-0.7,1.7
	c-0.2,0.6-0.4,1.1-0.6,1.5c0,0.1-0.1,0.3-0.1,0.4c0,0.1,0,0.2,0,0.3c0,0.1,0.1,0.1,0.2,0.1c0.1,0,0.3,0,0.4-0.2
	c0.1-0.1,0.3-0.3,0.6-0.5c0.2-0.2,0.5-0.6,0.8-1.1l0,0c0,0,0,0,0.1,0.1c0,0,0,0,0,0.1l0.1-0.2c0.2-0.4,0.3-0.8,0.5-1.1
	c0.2-0.4,0.3-0.8,0.5-1.1c0-0.1,0.1-0.2,0.1-0.3c0-0.1,0.1-0.2,0.1-0.3c0-0.1,0.1-0.2,0.2-0.4v0h0l-0.8,0c-0.1,0-0.2,0-0.2-0.1
	c0,0,0-0.1,0-0.1c0-0.1,0.1-0.2,0.2-0.2c0.1,0,0.1-0.1,0.2-0.1c0,0,0.1-0.1,0.2-0.1l0.8,0c0,0,0.1,0,0.1,0v0
	c0.1-0.2,0.2-0.4,0.3-0.7c0.1-0.2,0.2-0.4,0.3-0.6c0.1-0.2,0.2-0.4,0.2-0.5c0.1-0.1,0.1-0.3,0.2-0.3c0,0,0-0.1,0.1-0.1
	c0,0,0-0.1,0-0.1l0-0.1c0,0,0.1-0.1,0.1-0.1c0.1,0,0.2-0.1,0.3-0.2c0.2-0.1,0.3-0.1,0.5-0.1c0.2,0,0.3,0,0.5,0c0,0,0,0,0.1,0
	c0,0,0,0,0,0.1c0,0.1-0.1,0.1-0.1,0.2c0,0.1-0.1,0.1-0.1,0.2c0,0.1-0.1,0.2-0.1,0.3c-0.1,0.2-0.2,0.4-0.3,0.6
	c-0.1,0.2-0.2,0.4-0.3,0.6c-0.1,0.2-0.2,0.5-0.3,0.8c0,0,0,0,0,0c0,0,0,0,0,0c0.3,0,0.5,0,0.7,0c0.2,0,0.4,0,0.5,0c0,0,0,0,0.1,0
	c0,0,0,0.1,0,0.1c-0.1,0.1-0.1,0.1-0.2,0.2c-0.1,0-0.2,0.1-0.2,0.1c-0.1,0-0.2,0.1-0.3,0.1c-0.1,0-0.2,0-0.3,0c-0.1,0-0.3,0-0.4,0
	c0,0,0,0,0,0h0v0c-0.3,0.7-0.6,1.5-1,2.2c-0.3,0.7-0.6,1.4-0.9,2.1c-0.1,0.2-0.1,0.3-0.1,0.4c0,0.1,0,0.2,0,0.3
	c0,0.1,0.1,0.1,0.3,0.1c0.1,0,0.3-0.1,0.5-0.2c0.1-0.1,0.3-0.3,0.5-0.5c0.2-0.2,0.5-0.5,0.8-1c0,0,0,0,0,0c0,0,0,0,0,0
	c0,0,0.1,0.1,0.1,0.2c0,0,0,0,0,0c0.1-0.4,0.2-0.8,0.4-1.2c0.1-0.3,0.3-0.5,0.5-0.8c0.2-0.3,0.4-0.6,0.6-0.8
	c0.3-0.3,0.5-0.5,0.9-0.7c0.3-0.2,0.7-0.4,1.1-0.5c0.3-0.1,0.6-0.1,0.9-0.1c0.2,0,0.5,0,0.7,0.1c0.2,0.1,0.4,0.3,0.6,0.5
	c0.1,0.2,0.1,0.5,0.1,0.7c0,0.2-0.1,0.5-0.3,0.7C55,6.8,54.8,7,54.4,7.3c-0.3,0.2-0.5,0.4-0.8,0.5c-0.3,0.1-0.6,0.2-0.9,0.4
	c-0.3,0.1-0.7,0.2-1.1,0.2l0,0c0,0,0,0-0.1,0c-0.1,0.4-0.2,0.8-0.2,1.1c0,0.1,0,0.3,0,0.4c0,0.1,0.1,0.2,0.2,0.4
	c0.1,0.1,0.2,0.2,0.3,0.2c0.1,0.1,0.3,0.1,0.5,0.1c0.2,0,0.5-0.1,0.8-0.2c0.2-0.1,0.5-0.3,0.8-0.5c0.3-0.2,0.6-0.6,0.9-1
	c0,0,0,0,0,0c0,0,0.1,0,0.1,0.1c0,0.1,0,0.2,0,0.3l0-0.1c0.2-0.6,0.5-1.1,0.7-1.6c0.1-0.2,0.2-0.4,0.3-0.6C55.9,6.6,56,6.4,56,6.2
	c0.1-0.2,0.1-0.3,0.2-0.5c0.1-0.1,0.1-0.2,0.2-0.3c0,0,0-0.1,0.1-0.1c0,0,0-0.1,0-0.1l0-0.1l0.1-0.1c0,0,0.1,0,0.1-0.1
	C56.8,5,56.9,5,57,5c0.2,0,0.3-0.1,0.5-0.1c0.1,0,0.3,0,0.5,0c0,0,0,0,0.1,0c0,0,0,0.1,0,0.1c0,0.1-0.1,0.1-0.1,0.2
	c0,0.1-0.1,0.1-0.1,0.2c0,0.1-0.1,0.2-0.1,0.3c0,0.1-0.1,0.1-0.1,0.2c0,0.1-0.1,0.2-0.1,0.3c0,0.1-0.1,0.3-0.2,0.4v0.1
	c0,0,0,0,0.1,0c0.3-0.3,0.6-0.6,1-0.9c0.3-0.2,0.6-0.4,0.9-0.6C59.5,5.1,59.8,5,60.1,5c0.1,0,0.1,0,0.2,0.1c0,0,0.1,0.1,0.1,0.2
	c0,0.1,0.1,0.2,0.1,0.3c0,0.3-0.1,0.6-0.2,0.9C60.1,6.8,60,7,59.9,7.2c-0.2,0.2-0.3,0.4-0.5,0.5c-0.1,0.1-0.2,0.1-0.3,0.2
	c-0.1,0-0.1,0.1-0.2,0.1c-0.1,0-0.1,0-0.1,0c0,0-0.1,0-0.1-0.1V7.8c0.2-0.4,0.3-0.6,0.3-0.8C59,6.7,59,6.6,59,6.5
	c0-0.1,0-0.2-0.1-0.3c-0.1,0-0.2,0-0.3,0c-0.1,0.1-0.2,0.1-0.4,0.2c-0.1,0.1-0.3,0.2-0.4,0.4c-0.1,0.2-0.3,0.3-0.4,0.4
	c-0.1,0.2-0.3,0.3-0.4,0.5C57,8,56.9,8.1,56.8,8.3c-0.1,0.2-0.2,0.3-0.3,0.4c-0.1,0.2-0.2,0.4-0.3,0.6c-0.1,0.2-0.2,0.4-0.3,0.6
	c-0.1,0.2-0.2,0.4-0.3,0.6c0,0.1-0.1,0.2-0.1,0.3c0,0.1-0.1,0.2-0.1,0.2c0,0.1-0.1,0.1-0.2,0.2c-0.1,0.1-0.3,0.2-0.4,0.2
	c-0.1,0-0.3,0.1-0.4,0.1c-0.2,0-0.3,0-0.5,0c-0.1,0-0.1-0.1-0.1-0.1c0,0,0-0.1,0-0.1c0.1-0.3,0.3-0.5,0.4-0.8
	c0.1-0.3,0.2-0.5,0.3-0.7c-0.4,0.5-0.8,0.8-1.2,1c-0.4,0.2-0.8,0.4-1.2,0.4c-0.4,0.1-0.8,0.1-1.2,0c-0.3-0.1-0.5-0.2-0.7-0.3
	c-0.2-0.1-0.3-0.3-0.4-0.5c-0.1-0.2-0.1-0.4-0.2-0.6c0-0.2,0-0.4,0-0.6c0,0,0-0.1,0-0.1c0,0,0,0.1-0.1,0.1c-0.1,0.1-0.1,0.3-0.3,0.4
	c-0.1,0.1-0.2,0.2-0.3,0.3c-0.1,0.1-0.3,0.2-0.4,0.4c-0.3,0.3-0.6,0.5-0.8,0.6c-0.3,0.1-0.5,0.2-0.7,0.3c-0.2,0.1-0.3,0.1-0.4,0.1
	c-0.1,0-0.2,0-0.2,0c-0.2,0-0.4-0.1-0.5-0.2C46,10.8,46,10.6,46,10.4c0-0.1,0-0.2,0-0.4c0-0.1,0.1-0.3,0.1-0.4l0.1-0.2
	c-0.3,0.4-0.6,0.7-0.9,0.9c-0.3,0.3-0.6,0.5-0.9,0.6c-0.3,0.1-0.6,0.2-0.8,0.2c-0.3,0-0.5-0.1-0.6-0.3c-0.1-0.2-0.1-0.4-0.1-0.6
	c0-0.3,0.1-0.5,0.2-0.9c0,0,0-0.1,0-0.1c0,0,0,0,0,0c0,0,0,0-0.1,0c-0.3,0.4-0.6,0.7-0.9,1c-0.3,0.2-0.5,0.4-0.7,0.6
	c-0.2,0.2-0.4,0.3-0.6,0.3c-0.2,0.1-0.3,0.1-0.4,0c-0.1,0-0.2-0.1-0.3-0.1C40.1,11,40,10.9,40,10.8c-0.1-0.2-0.2-0.5-0.2-0.8
	c0-0.1,0-0.2,0-0.4c-0.2,0.3-0.4,0.5-0.6,0.7c-0.3,0.3-0.6,0.5-0.8,0.7c-0.3,0.2-0.6,0.3-0.9,0.4c-0.3,0.1-0.6,0.1-0.7,0
	c-0.1-0.1-0.2-0.2-0.3-0.4c0-0.2,0-0.4,0-0.7c0-0.1,0.1-0.3,0.2-0.6l0.1-0.2c0,0-0.1,0.1-0.1,0.1c-0.4,0.6-0.8,1-1.2,1.3
	c-0.4,0.3-0.8,0.5-1.1,0.6C33.8,11.9,33.4,12,33,12z M35.6,6.9c0.2-0.3,0.3-0.6,0.4-0.8c0.1-0.2,0.1-0.4,0.2-0.5c0-0.1,0-0.3,0-0.3
	c0-0.1-0.1-0.1-0.2-0.1c0,0-0.1,0-0.1,0.1c-0.3,0.1-0.5,0.4-0.8,0.7c-0.3,0.4-0.5,0.7-0.7,1.1c-0.2,0.4-0.4,0.9-0.7,1.4v0
	c0,0,0,0,0.1,0c0.3-0.1,0.5-0.2,0.7-0.3c0.2-0.2,0.4-0.3,0.6-0.5C35.3,7.4,35.4,7.2,35.6,6.9z M29.9,13.5c0,0.1,0,0.2,0,0.2
	c0,0,0,0.1-0.1,0.1c0,0-0.1,0-0.1,0c-0.4-0.1-0.6-0.3-0.8-0.6c-0.1-0.3-0.2-0.6-0.2-0.9c0-0.4,0-0.8,0.2-1.2c0-0.1,0-0.1-0.1-0.1
	c0,0-0.1,0-0.1,0.1c-0.5,0.7-0.9,1.3-1.4,1.7c-0.4,0.4-0.8,0.6-1.2,0.8c-0.4,0.2-0.8,0.3-1.1,0.2c-0.3,0-0.5-0.1-0.7-0.2
	c-0.2-0.1-0.3-0.3-0.4-0.6c-0.1-0.2-0.1-0.5-0.1-0.8c0-0.3,0-0.6,0-0.9c0-0.3,0.1-0.7,0.2-1c0.1-0.4,0.2-0.7,0.3-1
	c0.1-0.4,0.3-0.7,0.4-1.1c0.3-0.8,0.7-1.5,1.1-2.3c0.4-0.6,0.8-1.3,1.4-2c0.5-0.7,1.2-1.3,1.9-1.7c0.3-0.2,0.7-0.4,1.1-0.6
	c0.3-0.1,0.6-0.3,1-0.4c0.4-0.1,0.7-0.1,1.1-0.1c0.1,0,0.3,0,0.4,0.1c0.1,0.1,0.1,0.2,0.2,0.3c0,0.1,0,0.3-0.1,0.6
	c-0.1,0.4-0.3,0.7-0.5,1c-0.2,0.3-0.4,0.5-0.7,0.7c-0.3,0.2-0.5,0.4-0.8,0.6c-0.1,0-0.1,0.1-0.1,0.1c0,0-0.1,0-0.1,0c0,0,0,0-0.1,0
	c0,0,0-0.1,0-0.1c0,0,0,0,0.1-0.1c0.2-0.4,0.4-0.7,0.5-0.9c0.1-0.3,0.2-0.5,0.3-0.6c0.1-0.2,0.1-0.3,0.1-0.5c0-0.1,0-0.2,0-0.3
	c-0.1-0.1-0.1-0.1-0.2-0.1c-0.1,0-0.2,0-0.3,0c-0.3,0.1-0.6,0.3-0.9,0.5c-0.3,0.2-0.5,0.5-0.8,0.8c-0.3,0.3-0.5,0.6-0.7,1
	c-0.2,0.4-0.4,0.7-0.6,1.1c-0.5,0.8-0.9,1.8-1.3,2.8c-0.3,0.8-0.5,1.5-0.7,2.1c-0.1,0.3-0.1,0.5-0.1,0.8c0,0.3,0,0.5,0,0.7
	c0,0.2,0.1,0.4,0.2,0.5c0.1,0.1,0.2,0.2,0.4,0.2c0.2,0,0.3-0.1,0.5-0.2c0.2-0.1,0.3-0.2,0.5-0.4c0.2-0.2,0.4-0.4,0.6-0.7
	c0.2-0.3,0.5-0.6,0.8-1.1c0.2-0.4,0.5-0.8,0.8-1.3c0.3-0.5,0.6-1.1,0.8-1.8c0-0.1,0-0.1,0-0.2c0,0,0,0-0.1,0
	c-0.3,0.1-0.5,0.1-0.7,0.2c-0.2,0.1-0.4,0.1-0.5,0.1c-0.2,0-0.3,0.1-0.4,0.1c-0.1,0-0.1,0-0.2,0c0,0,0-0.1,0-0.1
	c0-0.1,0.1-0.1,0.1-0.2c0-0.1,0.1-0.2,0.2-0.3c0.1-0.1,0.1-0.1,0.2-0.2C29.2,6.1,29.3,6,29.5,6l0.8-0.2c0.2,0,0.4-0.1,0.6-0.1
	c0.2,0,0.4-0.1,0.5-0.1c0.2-0.1,0.4-0.1,0.6-0.2c0.2,0,0.3-0.1,0.4-0.1c0,0,0,0,0.1,0c0,0,0,0.1,0,0.1c-0.3,0.8-0.6,1.6-0.9,2.3
	c-0.1,0.3-0.2,0.6-0.4,0.9C31.1,9,31,9.3,30.9,9.5c-0.1,0.3-0.2,0.5-0.3,0.7c-0.1,0.2-0.1,0.4-0.2,0.5c-0.1,0.4-0.2,0.7-0.3,1.1
	c-0.1,0.3-0.2,0.6-0.2,0.9C29.9,13.1,29.9,13.3,29.9,13.5z M66.7,9.4c0.1-0.2,0.2-0.5,0.3-0.7c0.1-0.2,0.2-0.4,0.3-0.6
	c0.1-0.2,0.2-0.4,0.3-0.6c0,0,0,0,0-0.1v0c0-0.1-0.1-0.1-0.2-0.2c-0.1,0-0.2-0.1-0.2-0.1c-0.1,0-0.2,0-0.3,0
	c-0.3,0.1-0.6,0.3-0.8,0.5c-0.3,0.2-0.5,0.5-0.7,0.8c-0.2,0.3-0.4,0.6-0.5,0.8c-0.2,0.3-0.3,0.5-0.4,0.7c0,0.1-0.1,0.2-0.1,0.2
	c0,0.1,0,0.1-0.1,0.2c0,0.1,0,0.1-0.1,0.2c0,0.2-0.1,0.3-0.1,0.5c0,0.1,0,0.2,0,0.3c0,0.1,0.1,0.2,0.2,0.2c0.1,0,0.1,0,0.2,0
	c0.1,0,0.2,0,0.3-0.1c0.1-0.1,0.2-0.2,0.4-0.3c0.2-0.1,0.3-0.3,0.5-0.5c0.1-0.2,0.3-0.4,0.5-0.6C66.4,9.9,66.5,9.6,66.7,9.4z
	 M66.3,13.2c-0.3-0.1-0.5-0.2-0.6-0.4c-0.1-0.2-0.1-0.4-0.1-0.6c0-0.2,0.1-0.5,0.2-0.8c0,0,0-0.1,0-0.1c0,0,0,0,0,0c0,0,0,0-0.1,0
	c-0.3,0.3-0.6,0.6-0.8,0.7c-0.3,0.2-0.5,0.3-0.7,0.4c-0.2,0.1-0.4,0.1-0.6,0.2c-0.2,0-0.3,0-0.4-0.1c-0.1-0.1-0.2-0.1-0.3-0.2
	c-0.1-0.1-0.1-0.2-0.2-0.3c-0.1-0.3-0.2-0.5-0.2-0.8c0-0.1,0-0.2,0-0.3c-0.3,0.3-0.6,0.6-0.9,0.7c-0.3,0.2-0.6,0.3-0.8,0.4
	c-0.3,0.1-0.5,0.1-0.7,0.1c-0.3,0-0.5-0.1-0.6-0.2c-0.1-0.1-0.2-0.2-0.3-0.3c-0.1-0.1-0.1-0.3-0.1-0.5c0-0.1,0-0.2,0-0.3
	c0-0.1,0.1-0.2,0.1-0.3c0-0.1,0.1-0.3,0.1-0.4c0.1-0.2,0.3-0.6,0.4-1c0.2-0.4,0.4-0.8,0.6-1.3c0.2-0.4,0.4-0.8,0.5-1.2
	c0.2-0.3,0.3-0.6,0.4-0.7c0,0,0-0.1,0.1-0.1c0,0,0,0,0-0.1l0-0.1l0.1-0.1c0,0,0.1,0,0.1-0.1c0.1,0,0.1-0.1,0.2-0.1
	c0.2,0,0.3-0.1,0.5-0.1c0.2,0,0.3,0,0.5,0.1c0,0,0,0,0.1,0c0,0,0,0.1,0,0.1c0,0.1-0.1,0.1-0.1,0.2c0,0.1-0.1,0.1-0.1,0.2
	c0,0.1-0.1,0.2-0.1,0.3c-0.2,0.3-0.3,0.7-0.5,1.2c-0.2,0.4-0.4,0.8-0.6,1.3c-0.2,0.5-0.5,1-0.7,1.6l-0.1,0.2c0,0.1-0.1,0.2-0.1,0.3
	c0,0.1,0,0.1,0,0.2c0,0.1,0.1,0.1,0.2,0.1c0,0,0.1,0,0.1,0c0,0,0.1,0,0.2,0c0.1,0,0.2,0,0.2-0.1c0.4-0.2,0.8-0.6,1.3-1.2
	c0-0.1,0.1-0.2,0.1-0.3c0-0.1,0.1-0.2,0.1-0.3c0-0.1,0.1-0.2,0.1-0.3c0.1-0.1,0.1-0.2,0.2-0.4c0.2-0.3,0.4-0.5,0.6-0.8
	c0.2-0.3,0.5-0.6,0.9-0.8c0.3-0.2,0.7-0.4,1.1-0.5c0.4-0.1,0.9-0.1,1.3,0c0.1,0,0.2,0.1,0.2,0.1c0.1,0,0.1,0.1,0.2,0.1
	c0.1,0,0.1,0.1,0.1,0.2l0,0c0,0,0,0,0.1,0C68,7.1,68,7,68.1,7c0.1-0.1,0.2-0.1,0.4-0.1c0.1,0,0.2,0,0.2,0c0.2,0,0.3,0.1,0.6,0.1
	c0,0,0,0,0.1,0c0,0,0,0.1,0,0.1c-0.3,0.6-0.5,1.1-0.8,1.7c-0.2,0.5-0.5,1-0.7,1.5c-0.2,0.5-0.4,1-0.6,1.3c0,0.1-0.1,0.2-0.1,0.3
	c0,0.1,0,0.2,0,0.3c0,0.1,0.1,0.1,0.2,0.1c0.1,0,0.3,0,0.4-0.1c0.1-0.1,0.3-0.2,0.5-0.4c0.2-0.2,0.5-0.5,0.8-0.9l0,0
	c0,0,0,0,0.1,0.1c0,0.1,0,0.2,0,0.3c0,0.1,0,0.2-0.1,0.3c0,0.1-0.1,0.2-0.2,0.3c-0.4,0.4-0.7,0.7-1,0.9c-0.3,0.2-0.6,0.3-0.9,0.3
	C66.9,13.3,66.6,13.3,66.3,13.2z M62.9,4.7c-0.2,0-0.4-0.1-0.5-0.3c-0.1-0.2-0.1-0.4-0.1-0.7c0.1-0.2,0.2-0.4,0.4-0.6
	c0.2-0.1,0.4-0.2,0.6-0.2c0.2,0,0.4,0.1,0.5,0.3c0.1,0.2,0.1,0.4,0.1,0.7c-0.1,0.2-0.2,0.4-0.4,0.6C63.3,4.7,63.1,4.7,62.9,4.7z
	 M87.2,26.5c2,0,3.7,0.7,5,2.1c1.3,1.4,2,2.8,2.3,4.1c0.5,0,1,0.2,1.5,0.6c-0.7,0.3-1.2,0.6-1.6,0.9c-0.1,2.2-0.8,4-2.2,5.5
	c-1.4,1.5-3,2.2-5,2.2c-2,0-3.7-0.7-5-2.2c-1.3-1.5-2-2.9-2.3-4.3c-0.7-0.4-1.3-0.5-1.6-0.3c0.5-0.6,1-1,1.5-1.1
	c0.2-2.1,0.9-3.9,2.2-5.3C83.5,27.3,85.2,26.6,87.2,26.5z M86.5,27.9c-1.3,0.2-2.4,0.9-3.1,2.2c-0.8,1.3-1.1,2.7-1,4.1
	c0.5,0.1,1.2,0.2,1.9,0.1c-0.3,0.5-0.9,0.9-1.8,1.1c0.2,1.3,0.8,2.5,1.9,3.6c1.1,1.1,2.3,1.6,3.6,1.5c1.3-0.2,2.4-0.9,3.2-2.3
	c0.8-1.3,1.1-2.6,1-3.9c-0.5-0.1-1-0.4-1.5-0.8c0.6,0,1-0.2,1.4-0.5c-0.2-1.3-0.8-2.6-1.9-3.7C89,28.2,87.8,27.7,86.5,27.9z
	 M66.7,25.9l0.4,0.2c3.9,0.2,7.9,0.2,11.9,0l0.4-0.2l0.1,1.1l0.5,1.4l-0.4,0.2c-0.3-0.6-0.6-1-1.1-1l-1.8-0.1
	c-1.4,0-2.2,0.1-2.4,0.2c-0.2,0.1-0.3,0.5-0.3,1.1v4.6l0.5,0.2l0.7,0.5l-1.2,0.4V40c0,0.3,0.1,0.6,0.3,0.8c0.2,0.2,0.4,0.3,0.5,0.4
	c0.2,0.1,0.4,0.1,0.6,0.2c0.2,0.1,0.5,0,0.7-0.1c-0.2,0.3-0.4,0.4-0.6,0.5c-0.2,0.1-0.7,0.1-1.2,0c-0.6,0-1-0.1-1.4-0.1
	c-0.3,0-0.7-0.1-1.1,0c-0.4,0-0.8,0.1-1.3,0.3c0.2-0.4,0.3-0.7,0.5-0.9c0.2-0.1,0.3-0.3,0.5-0.5c0.2-0.2,0.2-0.6,0.2-1.2v-4.7
	l-0.4-0.1l-0.6-0.6l1-0.4v-4.6c0-0.7-0.1-1.1-0.4-1.2c-0.2-0.1-0.9-0.2-2.1-0.2l-1.7,0.1c-0.4,0-0.8,0.4-1.2,1.1l-0.3-0.2L66.7,25.9
	z M50.4,26.2c0.2,0.7,0.5,1.1,1,1.3c0.5,0.2,1,0.3,1.5,0.3c0.5,0,0.8,0.1,0.8,0.4c0.1,0.3,0.1,2.3,0.1,6l-0.2,5.6
	c-0.1,0.7-0.2,1.2-0.4,1.4c-0.2,0.2-0.4,0.3-0.7,0.3c-0.2,0-0.4,0.1-0.5,0.1c0.2,0.2,0.7,0.3,1.4,0.2c0.7,0,1.5-0.1,2.3-0.1
	c0.8,0,1.3,0,1.6,0.1c0.3,0,0.6,0.1,0.9,0.2c-0.7-0.6-1.2-1-1.5-1.1c-0.3-0.1-0.5-0.3-0.6-0.5c0-0.2-0.1-4.3-0.1-12.3h2.3
	c1.4,0.1,2.3,0.7,2.7,1.6c0.2,0.6,0.2,1.2,0,1.9c-0.5,1.2-1.2,1.9-2.2,2.1c-0.9,0.1-1.7,0.2-2.4,0.1l0.3,0.8c1.1,0,1.9,0.2,2.4,0.5
	c0.4,0.3,1.1,1.2,2.1,2.6c1,1.5,1.7,2.5,2.2,3.1c0.5,0.6,1.2,1,2.1,1.2c0.7,0.2,1.2,0.3,1.8,0.3c0.2,0,0.3,0,0.4,0
	c0.6-0.1,1.1-0.1,1.5-0.2l-0.1-0.4c-1.1,0-1.9-0.2-2.5-0.7c-0.6-0.5-1.2-1.3-1.7-2.3c-0.6-1-0.9-1.8-1-2.4c-0.1-0.6-0.1-1,0-1.3
	c-0.2,0-0.3,0-0.5,0.1c-0.3,0-1-0.2-2.2-0.8c1-0.4,1.7-0.8,2.1-1.4c0.4-0.5,0.7-1.1,0.8-1.7c0.2-0.1,0.3-0.3,0.4-0.4
	c-0.3,0-0.5-0.2-0.5-0.5c-0.1-0.3-0.4-0.9-1-1.6c-0.6-0.8-1.2-1.3-2-1.5c-0.7-0.3-1.5-0.4-2.4-0.5c-0.8-0.1-1.5-0.1-2.1,0
	c-0.6,0-1.3,0.1-2.2,0.2c-0.9,0.1-1.7,0.1-2.3,0.2C51.5,27,50.9,26.7,50.4,26.2z M44.9,26.5c2,0,3.7,0.7,5,2.1
	c1.3,1.4,2,2.8,2.3,4.1c0.5,0,1,0.2,1.5,0.6c-0.7,0.3-1.2,0.6-1.6,0.9c-0.1,2.2-0.8,4-2.2,5.5c-1.4,1.5-3,2.2-5,2.2
	c-2,0-3.7-0.7-5-2.2c-1.3-1.5-2-2.9-2.3-4.3c-0.7-0.4-1.3-0.5-1.6-0.3c0.5-0.6,1-1,1.5-1.1c0.2-2.1,0.9-3.9,2.2-5.3
	C41.2,27.3,42.9,26.6,44.9,26.5z M44.2,27.9c-1.3,0.2-2.4,0.9-3.1,2.2c-0.8,1.3-1.1,2.7-1,4.1c0.5,0.1,1.2,0.2,1.9,0.1
	c-0.3,0.5-0.9,0.9-1.8,1.1c0.2,1.3,0.8,2.5,1.9,3.6c1.1,1.1,2.3,1.6,3.6,1.5c1.3-0.2,2.4-0.9,3.2-2.3c0.8-1.3,1.1-2.6,1-3.9
	c-0.5-0.1-1-0.4-1.5-0.8c0.6,0,1-0.2,1.4-0.5c-0.2-1.3-0.8-2.6-1.9-3.7C46.7,28.2,45.5,27.7,44.2,27.9z M22.5,21.5
	c0.2,0.7,0.5,1.1,1,1.3c0.5,0.2,1,0.3,1.5,0.3c0.5,0,0.8,0.1,0.8,0.4c0.1,0.3,0.1,3.3,0.1,9.1l-0.2,7.2c-0.1,0.7-0.2,1.2-0.4,1.4
	c-0.2,0.2-0.4,0.3-0.7,0.3c-0.2,0-0.4,0.1-0.5,0.1c0.2,0.2,0.7,0.3,1.4,0.2c0.7,0,1.4-0.1,2-0.1c0.6,0,1.1,0,1.6,0.1
	c0.5,0.1,0.9,0.1,1.1,0.2c-0.7-0.6-1.2-1-1.5-1.1c-0.3-0.1-0.5-0.7-0.7-1.8c-0.1-1.1-0.1-6.3,0-15.6l2.7-0.1
	c2.2,0.1,3.6,0.7,4.1,1.9c0.5,1.2,0.6,2.3,0.1,3.4c-0.5,1.1-1.3,1.7-2.3,1.8c-1,0.1-2.4,0.2-4.1,0.1l0.3,0.8
	c2.9,0.3,4.8,0.3,5.7-0.1c0.9-0.4,1.6-0.9,2.1-1.5c0.5-0.7,0.7-1.2,0.8-1.7c0.2-0.2,0.5-0.4,0.9-0.6c-0.5-0.2-0.9-0.5-1-0.8
	c-0.1-0.7-0.5-1.5-1-2.4c-0.6-0.9-1.2-1.5-2-1.7C34,22.2,33.2,22,32.3,22c-0.8-0.1-1.8-0.1-2.9,0c-1.1,0-2.1,0.1-3,0.2
	c-0.9,0.1-1.7,0.1-2.3,0.2C23.6,22.3,23,22.1,22.5,21.5z M5.9,27.6C6.3,27,6.6,26.7,7,26.7c0.4,0,0.9,0,1.5,0.1
	c0.6,0.1,1.1,0.1,1.6,0.1c0.4,0,1-0.2,1.6-0.4c-0.2,0.4-0.5,0.7-0.7,0.8c-0.2,0.2-0.4,0.3-0.6,0.3c-0.2,0.1-0.3,0.2-0.4,0.4
	c-0.1,0.2-0.1,0.6-0.1,1.1v4c0.2,0.1,0.6,0,1-0.3c-0.1,0.4-0.2,0.7-0.3,0.9c-0.1,0.1-0.3,0.3-0.6,0.4v4.2c0,0.4,0,0.8,0.1,1.2
	c0.1,0.4,0.5,0.5,1.2,0.5c2.4,0.1,4.1,0.1,5,0.1l0.6,0c0.4-0.7,0.9-1.1,1.4-1.3c-0.3,0.4-0.5,0.9-0.5,1.4c0,0.6-0.1,1.4,0,2.5
	l-0.5-0.2c-0.1-0.4-0.3-0.6-0.6-0.6c-0.3-0.1-1-0.1-2-0.2c-1,0-2.5,0-4.3,0.1c-1.8,0.1-2.9,0.1-3.2,0c-0.4-0.1-0.6-0.2-0.7-0.3
	c0.5,0,0.8-0.1,0.9-0.2c0.2-0.1,0.3-0.4,0.4-0.8c0.1-0.4,0.1-1.1,0.1-2v-9.7c0-0.9-0.2-1.4-0.8-1.5C6.7,27.3,6.3,27.4,5.9,27.6z
	 M0,22.8C0.5,22.3,1.1,22,1.8,22c0.7,0,1.3,0.1,1.7,0.2c0.4,0.1,0.8,0.1,1,0.1c0.3,0,0.7-0.1,1.3-0.3c-0.2,0.3-0.4,0.6-0.7,0.6
	c-0.3,0.1-0.6,0.2-0.8,0.3C4.2,23,4.1,23.4,4.1,24l0,15.6c0,0.6,0.1,1.1,0.3,1.3c0.2,0.2,0.4,0.3,0.7,0.4c0.3,0.1,0.5,0.1,0.7,0.1
	c0.2,0,0.4-0.1,0.5-0.2c-0.1,0.2-0.2,0.3-0.2,0.4c-0.1,0.1-0.2,0.2-0.4,0.2C5.7,42,5.4,42,4.9,42c-0.4,0-0.9-0.1-1.4-0.2
	c-0.5-0.1-1-0.2-1.5-0.1c-0.5,0-1.1,0.2-1.8,0.4c0.2-0.4,0.4-0.6,0.7-0.8c0.3-0.1,0.5-0.3,0.7-0.5c0.2-0.2,0.3-0.5,0.3-1l0-15.8
	c0-0.5-0.1-0.9-0.4-1.1C1.2,22.7,0.7,22.6,0,22.8z"/>
</svg>
