<?xml version="1.0" encoding="utf-8"?>
<!-- Generator: Adobe Illustrator 22.1.0, SVG Export Plug-In . SVG Version: 6.00 Build 0)  -->
<svg version="1.1" id="Layer_1" xmlns="http://www.w3.org/2000/svg" xmlns:xlink="http://www.w3.org/1999/xlink" x="0px" y="0px"
	 viewBox="0 0 28 1080" style="enable-background:new 0 0 28 1080;" xml:space="preserve">
<style type="text/css">
	.st0{fill:#FFFFFF;}
</style>
<path class="st0" d="M8.1,0C8,1,8,2,8,3c0,33.1,18,33.1,18,66.1c0,33.1-18,33.1-18,66.1c0,33.1,18,33.1,18,66.1
	c0,33.1-18.2,33.1-18.2,66.1c0.2,32.6,17.7,32.7,17.7,65.6c0,33.1-18,33.1-18,66.1c0,33.1,18,33.1,18,66.1c0,33.1-18,33.1-18,66.1
	c0,33.1,18,33.1,18,66.1c0,33.1-18,33.1-18,66.1c0,33.1,18,33.1,18,66.1c0,32.9-17.6,33.1-17.7,65.6c0,33.1,18.2,33.1,18.2,66.1
	c0,33.1-18,33.1-18,66.1c0,33.1,18,33.1,18,66.1c0,33.1-18,33.1-18,66.1c0,8.5,1.2,14.8,2.9,20H28V0H8.1z"/>
</svg>
